<?xml version="1.0" encoding="utf-8"?>
<!-- Generator: Adobe Illustrator 16.0.0, SVG Export Plug-In . SVG Version: 6.00 Build 0)  -->
<!DOCTYPE svg PUBLIC "-//W3C//DTD SVG 1.1//EN" "http://www.w3.org/Graphics/SVG/1.1/DTD/svg11.dtd">
<svg version="1.1" id="Layer_1" xmlns="http://www.w3.org/2000/svg" xmlns:xlink="http://www.w3.org/1999/xlink" x="0px" y="0px"
	 width="512px" height="340px" viewBox="0 0 512 340" enable-background="new 0 0 512 340" xml:space="preserve">
<rect fill-rule="evenodd" clip-rule="evenodd" fill="#FFD403" width="512" height="340"/>
<g>
	<g>
		<path fill-rule="evenodd" clip-rule="evenodd" d="M378.086,217.915c-12.268,0-37.428-3.1-37.428-47.676
			c0-44.583,25.16-47.683,37.428-47.683s37.428,3.1,37.428,47.683C415.514,214.815,390.354,217.915,378.086,217.915
			 M378.086,137.287c-14.028,0-15.979,12.966-15.979,32.953c0,19.663,1.95,32.956,15.979,32.956
			c14.027,0,15.992-13.365,15.992-32.956C394.078,150.831,392.113,137.287,378.086,137.287 M327.284,140.662
			c-0.334,0.888-1.279,1.357-2.197,1.103c-2.633-0.731-8.119-2.041-13.823-2.041c-17.404,0-23.255,13.188-23.255,30.522
			c0,17.342,5.851,30.686,23.255,30.686c5.704,0,11.205-1.294,13.823-2.037c0.918-0.254,1.863,0.219,2.197,1.092L331.242,210
			c0.351,0.887-0.042,1.877-0.887,2.291c-3.507,1.71-12.777,5.639-24.303,5.639c-31.098,0-39.393-23.45-39.393-47.683
			c0-24.229,8.295-47.675,39.393-47.675c11.54,0,20.81,3.929,24.303,5.642c0.858,0.415,1.237,1.408,0.901,2.285L327.284,140.662z
			 M215.908,217.915c-12.267,0-37.428-3.1-37.428-47.676c0-44.583,25.161-47.683,37.428-47.683c12.274,0,37.427,3.1,37.427,47.683
			C253.335,214.815,228.182,217.915,215.908,217.915 M215.908,137.287c-14.021,0-15.978,12.966-15.978,32.953
			c0,19.663,1.958,32.956,15.978,32.956S231.9,189.83,231.9,170.239C231.9,150.831,229.928,137.287,215.908,137.287
			 M134.351,183.558c-8.076,0-12.369-0.101-14.654-0.203c-1.163-0.052-2.124,0.858-2.124,2.009l-0.007,29.992
			c0,1.381-1.135,2.517-2.547,2.517H98.837c-1.404,0-2.539-1.136-2.539-2.517v-89.481c0-1.215,0.975-2.216,2.212-2.259
			c0,0,21.049-0.761,35.841-1.059c19.354-0.385,30.96,12.944,30.96,30.505C165.311,170.614,153.705,183.558,134.351,183.558
			 M128.734,138.113c-4.766,0-7.589,0.054-9.189,0.105c-1.106,0.029-1.972,0.924-1.972,2.012v25.659
			c0,1.087,0.866,1.982,1.972,2.019c1.6,0.047,4.423,0.106,9.189,0.106c11.656,0,18.167-4.737,18.167-14.952
			S140.391,138.113,128.734,138.113"/>
	</g>
</g>
</svg>
