<?xml version="1.0" encoding="utf-8"?>
<!-- Generator: Adobe Illustrator 16.0.0, SVG Export Plug-In . SVG Version: 6.00 Build 0)  -->
<!DOCTYPE svg PUBLIC "-//W3C//DTD SVG 1.1//EN" "http://www.w3.org/Graphics/SVG/1.1/DTD/svg11.dtd">
<svg version="1.1" id="Layer_1" xmlns="http://www.w3.org/2000/svg" xmlns:xlink="http://www.w3.org/1999/xlink" x="0px" y="0px"
	 width="500px" height="144.337px" viewBox="1.305 4.427 500 144.337" enable-background="new 1.305 4.427 500 144.337"
	 xml:space="preserve">
<g>
	<path d="M278.619,63.376c-6.651-2.09-12.736-3.229-18.065-3.229c-17.874,0-28.148,11.786-28.148,35.752
		c0,22.063,11.605,35.368,31.002,35.368c4.563,0,9.7-0.761,15.211-2.283V63.376z M298.59,141.538
		c-12.554,4.755-24.721,7.226-35.752,7.226c-30.241,0-52.108-17.874-52.108-52.864c0-33.661,18.64-52.87,46.784-52.87
		c6.464,0,13.497,1.14,20.914,3.236V9.749l20.162-5.322V141.538z M487.998,33.145c7.417,0,13.307-5.71,13.307-13.126
		c0-7.223-5.89-13.117-13.307-13.117c-7.611,0-13.314,5.895-13.314,13.117C474.684,27.435,480.387,33.145,487.998,33.145
		 M152.3,59.764c-15.216,0-25.865,10.84-25.865,28.144h50.585C177.02,71.744,169.033,59.764,152.3,59.764 M477.729,48.739h20.157
		v95.845h-20.157V48.739z M437.741,144.584v-62.57c0-15.779-7.225-22.059-19.018-22.059c-7.417,0-14.264,3.232-19.966,8.18v76.449
		H378.6v-62.57c0-15.779-9.7-22.059-22.437-22.059c-7.042,0-12.554,1.709-16.734,4.949v79.68h-20.161V54.439
		c9.509-7.605,24.72-11.41,38.987-11.41c13.307,0,24.339,3.617,31.568,11.031c10.079-7.036,21.483-11.031,33.276-11.031
		c22.059,0,34.805,11.602,34.805,35.182v66.372H437.741z M195.842,103.693h-69.407c0,18.257,12.928,27.574,29.475,27.574
		c13.124,0,21.68-2.092,35.561-7.608v16.549c-10.271,5.133-23.198,8.556-35.753,8.556c-30.806,0-51.155-16.734-51.155-53.626
		c0-34.421,19.971-52.108,47.736-52.108C182.531,43.03,196.795,63.951,195.842,103.693 M70.904,46.266
		c0-14.266-9.888-22.63-27.004-22.63H21.462v45.445h22.437C61.016,69.081,70.904,60.717,70.904,46.266 M72.426,144.584L45.23,85.82
		H21.462v58.764H1.305V6.901H49.99c25.673,0,42.216,15.782,42.216,38.029c0,17.308-10.079,31-26.243,37.85l30.236,61.804H72.426z"/>
</g>
</svg>
